#!OML:ASF F:\VICON\USERDATA\Patient Classification 1\PLAYGROUND\JustinFriday\JustinFriday.ASF
:FULLY-SPECIFIED
:DEGREES
2962
root 1.31887 15.1452 -15.3397 -909.094 -166.808 174.969
lowerback 33.8608 2.48294 1.32554
upperback 3.08558 4.33607 4.56755
thorax -14.2567 1.92871 2.42752
lowerneck -9.66496 -4.88851 -5.59466
upperneck 8.52693 -5.96086 1.72627
head 4.34896 -3.02011 1.03146
rclavicle 1.49089e-014 -1.51076e-014
rhumerus 60.3644 1.98353 -58.6022
rradius 45.7795
rwrist 376.562
rhand -27.8668 -23.3081
rfingers 7.12502
rthumb -1.25731 666.716
lclavicle 1.49089e-014 -1.51076e-014
lhumerus 58.314 -0.338796 76.2008
lradius 51.5046
lwrist -27.514
lhand -11.1653 -0.281637
lfingers 7.12502
lthumb 14.8612 29.1654
rfemur -47.1892 -3.25092 24.0283
rtibia 69.5563
rfoot -7.36358 -13.2079
rtoes 9.35402
lfemur -38.5916 5.03913 -18.4177
ltibia 70.5635
lfoot -22.1476 -13.3712
ltoes -4.94738
2963
root 1.23719 15.0144 -15.2661 -909.452 -167.317 174.473
lowerback 34.3051 2.39645 1.94885
upperback 3.10417 4.49577 4.71034
thorax -14.3894 1.96219 2.16957
lowerneck -9.30271 -5.11973 -5.71384
upperneck 8.42098 -6.3039 1.98977
head 4.28156 -3.17957 1.1163
rclavicle -3.69739e-014 -1.35174e-014
rhumerus 59.6338 1.43673 -58.7261
rradius 47.9845
rwrist 376.593
rhand -27.9407 -24.5647
rfingers 7.12502
rthumb -1.32865 665.46
lclavicle -3.69739e-014 -1.35174e-014
lhumerus 58.6574 -0.554563 76.2534
lradius 52.0394
lwrist -27.2187
lhand -11.0137 -0.207755
lfingers 7.12502
lthumb 15.0073 29.2284
rfemur -47.4025 -2.93826 24.2855
rtibia 66.7592
rfoot -7.23502 -13.61
rtoes 6.41669
lfemur -38.9371 4.99286 -17.7057
ltibia 72.5594
lfoot -22.8759 -13.8325
ltoes -3.84213
2964
root 1.15917 14.8862 -15.1893 -909.779 -167.739 173.983
lowerback 34.8462 2.35096 2.45531
upperback 2.95718 4.70497 4.9479
thorax -14.7744 2.02173 2.05172
lowerneck -8.86295 -5.35687 -5.89316
upperneck 8.52396 -6.63701 2.08514
head 4.26305 -3.34794 1.15981
rclavicle -2.44505e-014 -5.1684e-014
rhumerus 58.8775 1.11024 -58.8988
rradius 50.0237
rwrist 376.803
rhand -27.6314 -24.8008
rfingers 7.12502
rthumb -1.02989 665.222
lclavicle -2.44505e-014 -5.1684e-014
lhumerus 58.7886 -0.738832 76.2666
lradius 52.4392
lwrist -27.246
lhand -10.9603 -0.0167794
lfingers 7.12502
lthumb 15.0587 29.4155
rfemur -47.6143 -2.62501 24.5463
rtibia 63.8672
rfoot -7.0819 -14.0332
rtoes 4.51571
lfemur -39.2903 4.91325 -17.0154
ltibia 74.4627
lfoot -23.6502 -13.9993
ltoes -3.91793
2965
root 1.08805 14.7635 -15.1035 -910.224 -168.258 173.878
lowerback 35.1195 2.2566 2.62494
upperback 2.89059 4.69407 5.08853
thorax -14.9651 2.00659 2.11176
lowerneck -8.00168 -5.45143 -6.30357
upperneck 8.45792 -6.79873 2.38786
head 4.13254 -3.43096 1.32908
rclavicle -7.13637e-014 -8.34896e-014
rhumerus 58.3643 0.96463 -59.2025
rradius 51.7
rwrist 377.559
rhand -27.227 -24.3069
rfingers 7.12502
rthumb -0.639305 665.714
lclavicle -7.13637e-014 -8.34896e-014
lhumerus 58.8492 -0.6526 76.2733
lradius 52.8352
lwrist -27.4756
lhand -10.7094 0.00483125
lfingers 7.12502
lthumb 15.3004 29.4189
rfemur -47.7409 -2.65855 24.3944
rtibia 60.9374
rfoot -7.08126 -14.0231
rtoes 4.9965
lfemur -39.5079 4.69422 -16.8143
ltibia 76.2578
lfoot -24.5236 -13.9295
ltoes -4.07521
2966
root 1.02164 14.6454 -15.0173 -910.708 -168.815 174.054
lowerback 35.0888 2.06323 2.7069
upperback 3.00593 4.4549 5.00583
thorax -14.7914 1.89849 2.08432
lowerneck -6.49377 -5.33673 -6.80138
upperneck 7.31332 -6.73118 2.95789
head 3.95327 -3.40136 1.81734
rclavicle 9.34288e-015 3.97569e-015
rhumerus 58.3222 0.780428 -59.6316
rradius 52.8679
rwrist 378.735
rhand -27.0039 -23.9941
rfingers 7.12502
rthumb -0.423898 666.027
lclavicle 9.34288e-015 3.97569e-015
lhumerus 59.1096 -0.330254 76.0008
lradius 53.1689
lwrist -27.6538
lhand -10.4769 -0.215743
lfingers 7.12502
lthumb 15.5244 29.1811
rfemur -47.7933 -2.88611 23.9843
rtibia 57.9597
rfoot -7.13861 -14.0034
rtoes 5.68535
lfemur -39.6579 4.45032 -16.9547
ltibia 78.0071
lfoot -25.4871 -13.8735
ltoes -3.45571
2967
root 0.954556 14.5178 -14.9269 -911.074 -169.222 174.379
lowerback 35.7478 2.07701 2.4711
upperback 2.50592 4.45965 5.00975
thorax -15.6715 1.89996 2.19283
lowerneck -5.71137 -5.39361 -7.00843
upperneck 7.6787 -6.84368 2.90567
head 3.9435 -3.47572 1.84469
rclavicle -1.45113e-014 -2.46493e-014
rhumerus 57.646 0.96452 -59.525
rradius 53.6024
rwrist 380.167
rhand -26.8354 -24.4938
rfingers 7.12502
rthumb -0.261116 665.527
lclavicle -1.45113e-014 -2.46493e-014
lhumerus 58.59 -0.269683 75.8436
lradius 53.3032
lwrist -27.6793
lhand -10.6526 -0.626248
lfingers 7.12502
lthumb 15.3551 28.7836
rfemur -47.9285 -3.06946 23.5813
rtibia 54.9114
rfoot -6.70529 -14.3045
rtoes 3.47752
lfemur -39.9995 4.29322 -17.2457
ltibia 79.802
lfoot -26.3966 -13.6923
ltoes -2.23666
2968
root 0.89176 14.3763 -14.8266 -911.491 -169.399 174.306
lowerback 35.021 1.87243 2.98483
upperback 3.14413 4.28833 4.90308
thorax -14.5617 1.81176 1.89932
lowerneck -5.08552 -5.44455 -7.39392
upperneck 6.96218 -6.96001 3.45115
head 3.62316 -3.5211 2.11111
rclavicle -3.45885e-014 -7.4743e-014
rhumerus 58.4798 0.293797 -59.8656
rradius 54.135
rwrist 381.88
rhand -25.6944 -25.0736
rfingers 7.12502
rthumb 0.840929 664.948
lclavicle -3.45885e-014 -7.4743e-014
lhumerus 59.5563 0.20366 75.4377
lradius 53.3794
lwrist -27.6257
lhand -11.2517 -1.14834
lfingers 7.12502
lthumb 14.778 28.3048
rfemur -47.8631 -3.30743 23.819
rtibia 51.8448
rfoot -5.74924 -14.449
rtoes -0.193797
lfemur -40.2461 4.28375 -17.0379
ltibia 81.678
lfoot -27.1694 -13.569
ltoes -0.624647
2969
root 0.830396 14.24 -14.7267 -911.986 -169.527 174.036
lowerback 35.1937 1.75194 3.46062
upperback 3.12837 4.34824 5.02085
thorax -14.6244 1.81118 1.74511
lowerneck -3.95185 -5.44494 -7.93495
upperneck 6.68875 -7.03224 3.82807
head 3.36203 -3.56652 2.36064
rclavicle 1.68967e-014 -3.18055e-015
rhumerus 58.6109 0.0576482 -59.8569
rradius 54.4614
rwrist 382.291
rhand -24.8967 -24.7328
rfingers 7.12502
rthumb 1.61135 665.294
lclavicle 1.68967e-014 -3.18055e-015
lhumerus 59.5122 0.439032 75.0318
lradius 53.3847
lwrist -27.4924
lhand -11.7632 -1.53561
lfingers 7.12502
lthumb 14.2852 27.953
rfemur -47.6723 -3.58525 24.3061
rtibia 48.869
rfoot -5.66565 -14.3219
rtoes -0.199491
lfemur -40.2989 4.30087 -16.5824
ltibia 83.5653
lfoot -27.9378 -13.5437
ltoes 0.727468
2970
root 0.763378 14.1075 -14.6196 -912.487 -169.601 174.16
lowerback 35.3527 1.68584 3.49504
upperback 3.00132 4.29296 4.98455
thorax -14.83 1.77941 1.70674
lowerneck -2.8778 -5.26216 -8.02125
upperneck 6.60388 -6.8604 3.74666
head 3.11685 -3.49591 2.38218
rclavicle 1.25234e-014 -1.82882e-014
rhumerus 58.6845 0.395204 -59.5268
rradius 54.5624
rwrist 380.014
rhand -27.3153 -24.3208
rfingers 7.12502
rthumb -0.724597 665.701
lclavicle 1.25234e-014 -1.82882e-014
lhumerus 59.3571 0.809673 74.1464
lradius 53.3181
lwrist -26.9962
lhand -12.0806 -1.6806
lfingers 7.12502
lthumb 13.9794 27.8294
rfemur -47.5943 -3.73458 24.3941
rtibia 46.0796
rfoot -6.33542 -14.0579
rtoes 2.11768
lfemur -40.2912 4.35368 -16.5487
ltibia 85.4425
lfoot -28.8608 -13.2605
ltoes 0.828253
2971
root 0.699632 13.9517 -14.4989 -912.914 -169.58 174.141
lowerback 34.9569 1.62591 3.78112
upperback 3.30655 4.27953 5.01253
thorax -14.2909 1.77162 1.60223
lowerneck -2.25407 -5.24961 -8.2178
upperneck 6.18184 -6.87337 3.68003
head 2.86251 -3.50955 2.41108
rclavicle 4.03533e-014 5.08889e-014
rhumerus 59.2273 0.663989 -58.8501
rradius 54.7278
rwrist 376.327
rhand -31.8308 -24.067
rfingers 7.12502
rthumb -5.08539 666.014
lclavicle 4.03533e-014 5.08889e-014
lhumerus 59.7972 1.34483 74.0944
lradius 53.4754
lwrist -26.7985
lhand -12.1446 -1.71308
lfingers 7.12502
lthumb 13.9177 27.8012
rfemur -47.5647 -3.90008 24.7161
rtibia 43.4767
rfoot -6.15754 -13.585
rtoes 3.29099
lfemur -40.4481 4.47199 -16.3459
ltibia 87.4423
lfoot -29.7335 -13.0686
ltoes 0.42041
2972
root 0.644464 13.7948 -14.3747 -913.354 -169.502 174.011
lowerback 34.6736 1.51705 4.26625
upperback 3.50878 4.29494 5.06199
thorax -13.9053 1.76379 1.40049
lowerneck -1.48571 -5.15737 -8.64285
upperneck 5.85544 -6.80268 3.83759
head 2.63295 -3.48296 2.56469
rclavicle -2.14687e-014 -1.19271e-014
rhumerus 59.7545 0.569403 -58.9919
rradius 55.1747
rwrist 376.699
rhand -31.188 -24.4363
rfingers 7.12502
rthumb -4.46472 665.631
lclavicle -2.14687e-014 -1.19271e-014
lhumerus 59.9226 1.86792 74.4837
lradius 53.6161
lwrist -27.0693
lhand -12.1566 -1.8171
lfingers 7.12502
lthumb 13.9061 27.6979
rfemur -47.4382 -4.17137 25.2253
rtibia 41.0884
rfoot -5.71064 -12.8236
rtoes 3.21874
lfemur -40.6397 4.6717 -16.0263
ltibia 89.4918
lfoot -30.4379 -13.0435
ltoes 0.630756
